<svg width="143" height="143" viewBox="0 0 143 143" fill="none" xmlns="http://www.w3.org/2000/svg">
<path d="M44.9331 71.8655H69.1243V76.9367H14.8483V71.8655H39.3136V62.9565H30.4732C29.4681 62.9565 28.7028 62.6938 28.1774 62.1684C27.652 61.643 27.3893 60.8778 27.3893 59.8727V35.2703H56.9259V40.3415H33.0088V46.5092H56.2406V51.512H33.0088V57.8853H57.063V62.9565H44.9331V71.8655Z" fill="#FF7F71"/>
<path d="M101.745 54.1161V71.8655H109.077V76.9367H68.9872V71.8655H96.1252V54.1161H87.9701V68.1648H82.2821V54.1161H76.1143V49.0449H107.981V54.1161H101.745ZM101.334 107.33C99.1862 106.211 97.5072 104.646 96.2965 102.636C95.0858 100.625 94.4805 98.3639 94.4805 95.8511C94.4805 93.3383 95.0858 91.0768 96.2965 89.0666C97.5072 87.0564 99.1862 85.4916 101.334 84.3723C103.481 83.253 105.902 82.6933 108.598 82.6933H121.276V87.7645H108.598C106.131 87.7645 104.098 88.5184 102.499 90.026C100.899 91.5337 100.1 93.4754 100.1 95.8511C100.1 98.2268 100.899 100.169 102.499 101.676C104.098 103.184 106.131 103.938 108.598 103.938C111.065 103.938 113.098 103.184 114.697 101.676C116.296 100.169 117.096 98.2268 117.096 95.8511C117.096 94.0693 116.684 92.6073 115.862 91.4652H121.481C122.304 92.7901 122.715 94.2521 122.715 95.8511C122.715 98.3639 122.11 100.625 120.899 102.636C119.688 104.646 118.009 106.211 115.862 107.33C113.715 108.449 111.293 109.009 108.598 109.009C105.902 109.009 103.481 108.449 101.334 107.33ZM128.06 76.9367C124.725 76.7083 122.053 75.2692 120.042 72.6193C118.032 69.9695 117.027 66.0176 117.027 60.7636V34.0367H122.646V59.53C122.646 63.185 123.115 65.9947 124.051 67.9593C124.988 69.9238 126.324 71.2259 128.06 71.8655V76.9367Z" fill="#FF7F71"/>
</svg>
