<svg width="393" height="852" viewBox="0 0 393 852" fill="none" xmlns="http://www.w3.org/2000/svg">
<g opacity="0.6">
<path d="M45 794.5C45 826.256 19.2564 852 -12.5 852C-44.2564 852 -70 826.256 -70 794.5C-70 762.744 -44.2564 737 -12.5 737C19.2564 737 45 762.744 45 794.5ZM-60.7452 794.5C-60.7452 821.145 -39.1451 842.745 -12.5 842.745C14.1451 842.745 35.7452 821.145 35.7452 794.5C35.7452 767.855 14.1451 746.255 -12.5 746.255C-39.1451 746.255 -60.7452 767.855 -60.7452 794.5Z" fill="#FFCDB9"/>
<path d="M23 81.5C23 88.4036 17.4036 94 10.5 94C3.59644 94 -2 88.4036 -2 81.5C-2 74.5964 3.59644 69 10.5 69C17.4036 69 23 74.5964 23 81.5ZM0.0119076 81.5C0.0119076 87.2924 4.70759 91.9881 10.5 91.9881C16.2924 91.9881 20.9881 87.2924 20.9881 81.5C20.9881 75.7076 16.2924 71.0119 10.5 71.0119C4.70759 71.0119 0.0119076 75.7076 0.0119076 81.5Z" fill="#FFCDB9"/>
<path d="M125 781.5C125 788.404 119.404 794 112.5 794C105.596 794 100 788.404 100 781.5C100 774.596 105.596 769 112.5 769C119.404 769 125 774.596 125 781.5ZM102.012 781.5C102.012 787.292 106.708 791.988 112.5 791.988C118.292 791.988 122.988 787.292 122.988 781.5C122.988 775.708 118.292 771.012 112.5 771.012C106.708 771.012 102.012 775.708 102.012 781.5Z" fill="#FFCDB9"/>
<path d="M372 781.5C372 788.404 366.404 794 359.5 794C352.596 794 347 788.404 347 781.5C347 774.596 352.596 769 359.5 769C366.404 769 372 774.596 372 781.5ZM349.012 781.5C349.012 787.292 353.708 791.988 359.5 791.988C365.292 791.988 369.988 787.292 369.988 781.5C369.988 775.708 365.292 771.012 359.5 771.012C353.708 771.012 349.012 775.708 349.012 781.5Z" fill="#FFCDB9"/>
<path d="M68 664.5C68 677.479 57.4787 688 44.5 688C31.5213 688 21 677.479 21 664.5C21 651.521 31.5213 641 44.5 641C57.4787 641 68 651.521 68 664.5ZM24.7824 664.5C24.7824 675.39 33.6103 684.218 44.5 684.218C55.3897 684.218 64.2176 675.39 64.2176 664.5C64.2176 653.61 55.3897 644.782 44.5 644.782C33.6103 644.782 24.7824 653.61 24.7824 664.5Z" fill="#FFCDB9"/>
<path d="M372 555.5C372 562.404 366.404 568 359.5 568C352.596 568 347 562.404 347 555.5C347 548.596 352.596 543 359.5 543C366.404 543 372 548.596 372 555.5ZM349.012 555.5C349.012 561.292 353.708 565.988 359.5 565.988C365.292 565.988 369.988 561.292 369.988 555.5C369.988 549.708 365.292 545.012 359.5 545.012C353.708 545.012 349.012 549.708 349.012 555.5Z" fill="#FFCDB9"/>
<line x1="48.52" y1="711" x2="48.52" y2="737" stroke="#FFCDB9" stroke-width="1.04"/>
<line x1="61" y1="724.52" x2="35" y2="724.52" stroke="#FFCDB9" stroke-width="1.04"/>
<line opacity="0.4" x1="365.52" y1="711" x2="365.52" y2="737" stroke="#FFCDB9" stroke-width="1.04"/>
<line opacity="0.4" x1="378" y1="724.52" x2="352" y2="724.52" stroke="#FFCDB9" stroke-width="1.04"/>
<line x1="294.52" y1="781" x2="294.52" y2="807" stroke="#FFCDB9" stroke-width="1.04"/>
<line x1="307" y1="794.52" x2="281" y2="794.52" stroke="#FFCDB9" stroke-width="1.04"/>
<line x1="89.28" y1="672" x2="89.28" y2="686" stroke="#FFCDB9" stroke-width="0.56"/>
<line x1="96" y1="679.28" x2="82" y2="679.28" stroke="#FFCDB9" stroke-width="0.56"/>
<line x1="132.28" y1="654" x2="132.28" y2="668" stroke="#FFCDB9" stroke-width="0.56"/>
<line x1="139" y1="661.28" x2="125" y2="661.28" stroke="#FFCDB9" stroke-width="0.56"/>
<line opacity="0.4" x1="366.12" y1="598" x2="366.12" y2="654" stroke="#FFCDB9" stroke-width="2.24"/>
<line opacity="0.4" x1="393" y1="627.12" x2="337" y2="627.12" stroke="#FFCDB9" stroke-width="2.24"/>
<line opacity="0.4" x1="36.12" y1="94" x2="36.12" y2="150" stroke="#FFCDB9" stroke-width="2.24"/>
<line opacity="0.4" x1="63" y1="123.12" x2="7" y2="123.12" stroke="#FFCDB9" stroke-width="2.24"/>
</g>
</svg>
